PathFileType  4	(X/Y/Z) C:\Users\antoi\Documents\MyRepositories\mobilecap\ResultsAnalysis
DataRate	CameraRate	NumFrames	NumMarkers	Units	OrigDataRate	OrigDataStartFrame	OrigNumFrames
100.0	100.0	4	51	mm	100.0	98	261
Frame#	Time	r_knee			r_shank_antsup			r_ankle			r_calc			r_5meta			r_toe			L_knee			L_shank_antsup			L_ankle			L_calc			L_5meta			L_toe			r_sh2			r_sh3			r_sh4			L_sh2			L_sh3			r_thigh1			r_thigh2			r_thigh3			r_thigh4			r_thigh5			L_thigh1			L_thigh2			L_thigh3			L_thigh4			r.ASIS			r.PSIS			L.ASIS			L.PSIS			C7			R_Shoulder			L_Shoulder			R_Sternum			L_Sternum			R_humerus			R_elbow_med			R_elbow_lat			R_forearm			R_wrist_radius			R_wrist_ulna			L_humerus			L_elbow_med			L_elbow_lat			L_forearm			L_wrist_radius			L_wrist_ulna			R_HJC			L_HJC			R_HJC_reg			L_HJC_reg			
		X1	Y1	Z1	X2	Y2	Z2	X3	Y3	Z3	X4	Y4	Z4	X5	Y5	Z5	X6	Y6	Z6	X7	Y7	Z7	X8	Y8	Z8	X9	Y9	Z9	X10	Y10	Z10	X11	Y11	Z11	X12	Y12	Z12	X13	Y13	Z13	X14	Y14	Z14	X15	Y15	Z15	X16	Y16	Z16	X17	Y17	Z17	X18	Y18	Z18	X19	Y19	Z19	X20	Y20	Z20	X21	Y21	Z21	X22	Y22	Z22	X23	Y23	Z23	X24	Y24	Z24	X25	Y25	Z25	X26	Y26	Z26	X27	Y27	Z27	X28	Y28	Z28	X29	Y29	Z29	X30	Y30	Z30	X31	Y31	Z31	X32	Y32	Z32	X33	Y33	Z33	X34	Y34	Z34	X35	Y35	Z35	X36	Y36	Z36	X37	Y37	Z37	X38	Y38	Z38	X39	Y39	Z39	X40	Y40	Z40	X41	Y41	Z41	X42	Y42	Z42	X43	Y43	Z43	X44	Y44	Z44	X45	Y45	Z45	X46	Y46	Z46	X47	Y47	Z47	X48	Y48	Z48	X49	Y49	Z49	X50	Y50	Z50	X51	Y51	Z51	

98	0.97000000	-902.04590	821.00113	-431.97910	-908.87082	718.07677	-444.63062	-1166.19202	492.60417	-465.14155	-1265.88237	480.79025	-514.39322	-1099.94186	372.39824	-428.22635	-1035.38360	376.47365	-491.39606	-1052.27387	802.58628	-766.90692	-1070.53716	712.07876	-780.61028	-1245.49026	429.19457	-694.71945	-1331.48237	384.74137	-630.88016	-1143.85079	354.05179	-727.38456	-1081.34597	377.64137	-664.86452	-986.94388	638.16162	-421.28460	-946.10150	769.00654	-399.98026	-1041.53836	697.02037	-396.15896	-1148.18850	756.68882	-770.36218	-1194.51464	645.06776	-753.31111	-915.20015	1145.99359	-426.13487	-878.69629	1043.47578	-432.66526	-915.10675	1002.42998	-394.89542	-1017.08815	1105.12933	-403.95426	-970.25192	999.86263	-404.37183	-982.99946	1091.34501	-793.66315	-971.98162	951.24097	-785.92412	-1092.87259	1083.20642	-789.64303	-1087.61948	946.46329	-780.20584	-930.95078	1325.16912	-478.80099	-1113.00402	1373.43710	-526.98060	-954.63029	1323.15677	-727.97562	-1124.90840	1374.13079	-635.49290	-858.63035	1869.75946	-615.99053	-811.88508	1801.14182	-458.40395	-811.63587	1790.81230	-774.79079	-764.67019	1747.54931	-586.31449	-766.87168	1743.67393	-640.26542	-780.47047	1671.04633	-374.41134	-800.55532	1453.05075	-347.00869	-778.72264	1502.64582	-276.16592	-608.93189	1497.33862	-323.29256	-528.57088	1511.47796	-371.78145	-528.44436	1477.32680	-340.51117	-782.48704	1686.82643	-857.63928	-716.00723	1445.93661	-818.96059	-691.92163	1478.45796	-889.65362	-609.93810	1475.46238	-886.26611	-443.00771	1426.22878	-841.01172	-453.12538	1389.51747	-856.77300	-1031.88215	1226.10398	-487.04872	-1057.48546	1232.68125	-692.31672	-1007.42019	1254.84450	-506.30102	-1025.43797	1255.89625	-670.51187	
99	0.98000000	-884.34361	831.70087	-430.36391	-893.10448	729.09856	-442.53519	-1149.94927	503.92368	-464.83957	-1249.05811	500.97441	-514.40614	-1093.47146	378.16448	-428.74040	-1028.25719	377.24561	-491.36332	-1053.22474	808.40178	-766.13441	-1071.81397	718.23882	-780.23475	-1243.83240	432.65690	-696.51073	-1330.35961	388.89864	-632.65144	-1143.26102	353.97474	-727.75330	-1080.46439	376.99599	-665.33170	-971.72413	649.46290	-419.62515	-930.57546	779.79494	-398.44003	-1026.25697	708.46466	-394.56239	-1149.59570	762.24897	-769.65861	-1195.22872	650.19344	-753.26814	-901.41887	1156.73462	-425.17762	-863.59467	1054.61504	-430.62767	-899.56065	1013.66318	-392.45820	-1002.80113	1114.67889	-402.43072	-954.60332	1009.94653	-402.47247	-974.75145	1094.86878	-793.47011	-968.48596	954.55584	-785.32825	-1084.71074	1090.53287	-788.76372	-1084.27131	953.51780	-779.14956	-918.43735	1335.56539	-478.85760	-1100.49262	1380.97541	-529.70988	-940.18735	1328.84636	-728.34322	-1110.98545	1380.94492	-638.69657	-854.06557	1880.98423	-615.80429	-808.62939	1815.76474	-457.95393	-805.77556	1804.77662	-772.93444	-758.77053	1760.16662	-584.53679	-760.29595	1756.25260	-638.39229	-773.28535	1688.33996	-372.59117	-786.53439	1470.86336	-341.03954	-766.02225	1522.69384	-271.03798	-598.28531	1530.16697	-321.25834	-520.45105	1549.74529	-371.07366	-517.00672	1516.04196	-339.49246	-772.07773	1704.30654	-857.00910	-698.11088	1464.85128	-824.50274	-673.60323	1501.20561	-894.53759	-592.11217	1504.24079	-887.95024	-423.15835	1469.08076	-838.61158	-429.56877	1432.14702	-855.59712	-1018.77832	1235.47483	-486.62417	-1042.43731	1238.48140	-692.20275	-994.18052	1262.38469	-506.94412	-1010.02869	1262.34018	-671.52939	
100	0.99000000	-867.65530	843.11117	-428.50809	-877.02935	740.76391	-440.47747	-1132.73910	513.87870	-464.90712	-1229.78303	520.42866	-514.59353	-1086.33475	383.39797	-429.49586	-1020.24072	378.37451	-491.02071	-1052.96809	815.52873	-764.98601	-1072.03776	725.79202	-779.48530	-1241.24590	437.42141	-698.03907	-1328.28042	395.64872	-634.31116	-1142.24828	353.85297	-728.00449	-1079.21938	375.99882	-665.79155	-955.78609	660.95372	-417.94408	-915.07771	791.19566	-397.27309	-1010.51428	720.00891	-393.37072	-1150.02485	769.25994	-768.77090	-1194.97547	656.66619	-753.06302	-887.61492	1167.79262	-423.59565	-848.57124	1066.06644	-428.18688	-884.33910	1024.86984	-390.01998	-988.61968	1124.64983	-401.11248	-939.34524	1020.46808	-400.33939	-964.91965	1099.46322	-792.31069	-963.49416	959.12969	-783.55452	-1074.98091	1098.80541	-787.98742	-1079.29839	961.71275	-778.40904	-905.49557	1346.77798	-478.85529	-1087.57528	1389.23325	-532.84745	-925.04294	1334.90240	-728.58269	-1096.41958	1388.44732	-642.17752	-849.00992	1892.66623	-615.53463	-805.18558	1830.64041	-457.47175	-800.30272	1819.17372	-770.78379	-752.78896	1773.06781	-583.03056	-753.48927	1768.92609	-636.50832	-766.10134	1706.35884	-370.58473	-772.74216	1489.58323	-334.99766	-753.71541	1543.67672	-265.70383	-588.61587	1561.75425	-318.30653	-513.23636	1585.87260	-369.11695	-506.99989	1552.60206	-337.43105	-762.47491	1722.33941	-856.20036	-681.93615	1484.06399	-830.29048	-656.84351	1524.67608	-899.09473	-576.47625	1533.38230	-889.63308	-406.77427	1511.29970	-836.76077	-409.69766	1474.39925	-854.69707	-1005.40825	1245.71329	-486.15226	-1026.77511	1244.81487	-692.00002	-980.52672	1270.50875	-507.57861	-993.86775	1269.32019	-672.55016	
101	1.00000000	-853.07416	855.15584	-426.11854	-860.82083	752.64074	-438.45744	-1115.17378	522.95625	-464.50427	-1209.20918	537.44383	-515.01290	-1078.39105	388.17917	-429.94805	-1010.99204	379.94526	-489.75795	-1050.99972	823.86627	-763.64048	-1070.76093	734.45105	-778.49125	-1237.42800	443.81391	-698.96516	-1324.80131	405.02168	-635.73077	-1140.71615	354.08349	-728.05775	-1077.36995	375.09851	-666.16286	-939.14139	672.50172	-415.92026	-899.62713	802.91699	-396.11322	-994.36658	731.20900	-392.54774	-1148.93446	777.54233	-767.79131	-1193.19312	664.55250	-752.66199	-873.84046	1178.82314	-421.28179	-833.81069	1077.52945	-425.41534	-869.69881	1035.79596	-387.80591	-974.62538	1134.85794	-399.92029	-924.66924	1030.99682	-398.44142	-953.60548	1105.23917	-790.14114	-956.63453	964.90776	-780.95698	-1063.75016	1107.83051	-787.45424	-1072.30450	970.88316	-778.26494	-892.11117	1358.19037	-478.88068	-1074.19827	1398.18667	-535.92742	-909.45408	1341.68624	-728.76547	-1081.42895	1396.47965	-645.53055	-843.48433	1904.68043	-615.26807	-801.36009	1845.29063	-457.37340	-795.00550	1833.92848	-768.72509	-746.42181	1785.56422	-581.40777	-746.58280	1781.37591	-634.91312	-758.88088	1724.70695	-368.37199	-759.25779	1508.74670	-328.98624	-741.92636	1565.08628	-260.41979	-579.62289	1591.74333	-314.56840	-506.60803	1619.83134	-366.04721	-497.92426	1587.04769	-334.41286	-753.69122	1740.67474	-855.49309	-667.41784	1503.33753	-836.36400	-641.71881	1548.39425	-903.23202	-562.96261	1562.33414	-891.38903	-393.53061	1552.24097	-835.55510	-393.13050	1515.64734	-854.14017	-991.75972	1256.36825	-485.82933	-1010.82083	1251.88588	-691.86380	-966.61881	1279.48874	-508.03944	-977.52235	1276.91330	-673.33606	
